#define layout_grid_width 15
#define layout_grid_height 9
static unsigned char layout_grid_bits[] = {
   0xff, 0x7f, 0x81, 0x40, 0x81, 0x40, 0x81, 0x40, 0xff, 0x7f, 0x81, 0x40,
   0x81, 0x40, 0x81, 0x40, 0xff, 0x7f };
