#define layout_tabbed_width 15
#define layout_tabbed_height 9
static unsigned char layout_tabbed_bits[] = {
   0xcf, 0x73, 0x01, 0x40, 0x01, 0x40, 0x01, 0x40, 0x01, 0x40, 0x01, 0x40,
   0x01, 0x40, 0x01, 0x40, 0xff, 0x7f };
