#define layout_accordian_width 15
#define layout_accordian_height 9
static unsigned char layout_accordian_bits[] = {
   0xff, 0x7f, 0x01, 0x40, 0xff, 0x7f, 0x01, 0x40, 0x01, 0x40, 0x01, 0x40,
   0xff, 0x7f, 0x01, 0x40, 0xff, 0x7f };
